<svg width="860" height="200" viewBox="0 0 860 200" xmlns="http://www.w3.org/2000/svg">
  <defs>
    <pattern id="g" x="0" y="0" width="34" height="34" patternUnits="userSpaceOnUse">
      <circle cx="17" cy="17" r="0.7" fill="#00bfff" opacity="0.1"/>
    </pattern>
  </defs>

  <!-- background -->
  <rect width="860" height="200" fill="#03080f"/>
  <rect width="860" height="200" fill="url(#g)"/>

  <!-- trace grid -->
  <line x1="0" y1="50"  x2="860" y2="50"  stroke="#0a2040" stroke-width="0.5"/>
  <line x1="0" y1="100" x2="860" y2="100" stroke="#0a2040" stroke-width="0.5"/>
  <line x1="0" y1="150" x2="860" y2="150" stroke="#0a2040" stroke-width="0.5"/>
  <line x1="100" y1="0" x2="100" y2="200" stroke="#0a2040" stroke-width="0.5"/>
  <line x1="220" y1="0" x2="220" y2="200" stroke="#0a2040" stroke-width="0.5"/>
  <line x1="380" y1="0" x2="380" y2="200" stroke="#0a2040" stroke-width="0.5"/>
  <line x1="540" y1="0" x2="540" y2="200" stroke="#0a2040" stroke-width="0.5"/>
  <line x1="680" y1="0" x2="680" y2="200" stroke="#0a2040" stroke-width="0.5"/>
  <line x1="790" y1="0" x2="790" y2="200" stroke="#0a2040" stroke-width="0.5"/>

  <!-- Chip: SQL -->
  <rect x="14" y="24" width="60" height="46" rx="3" fill="#030a14" stroke="#0d3055" stroke-width="1"/>
  <text x="44" y="51" text-anchor="middle" fill="#4da6ff" font-size="9" font-family="monospace">SQL</text>
  <line x1="14" y1="34" x2="4"   y2="34" stroke="#0d3055" stroke-width="1.5"/>
  <line x1="14" y1="46" x2="4"   y2="46" stroke="#0d3055" stroke-width="1.5"/>
  <line x1="14" y1="58" x2="4"   y2="58" stroke="#0d3055" stroke-width="1.5"/>
  <line x1="74" y1="34" x2="100" y2="34" stroke="#0d3055" stroke-width="1.5"/>
  <line x1="74" y1="46" x2="100" y2="46" stroke="#0d3055" stroke-width="1.5"/>
  <line x1="74" y1="58" x2="100" y2="58" stroke="#0d3055" stroke-width="1.5"/>

  <!-- Chip: Python -->
  <rect x="148" y="70" width="78" height="52" rx="3" fill="#030a14" stroke="#0d3055" stroke-width="1"/>
  <text x="187" y="100" text-anchor="middle" fill="#4da6ff" font-size="9" font-family="monospace">PYTHON</text>
  <line x1="148" y1="80"  x2="136" y2="80"  stroke="#0d3055" stroke-width="1.5"/>
  <line x1="148" y1="92"  x2="136" y2="92"  stroke="#0d3055" stroke-width="1.5"/>
  <line x1="148" y1="104" x2="136" y2="104" stroke="#0d3055" stroke-width="1.5"/>
  <line x1="148" y1="114" x2="136" y2="114" stroke="#0d3055" stroke-width="1.5"/>
  <line x1="226" y1="80"  x2="240" y2="80"  stroke="#0d3055" stroke-width="1.5"/>
  <line x1="226" y1="92"  x2="240" y2="92"  stroke="#0d3055" stroke-width="1.5"/>
  <line x1="226" y1="104" x2="240" y2="104" stroke="#0d3055" stroke-width="1.5"/>
  <line x1="226" y1="114" x2="240" y2="114" stroke="#0d3055" stroke-width="1.5"/>

  <!-- Chip: PySpark -->
  <rect x="148" y="140" width="78" height="42" rx="3" fill="#030a14" stroke="#0d3055" stroke-width="1"/>
  <text x="187" y="165" text-anchor="middle" fill="#7dd8f8" font-size="9" font-family="monospace">PYSPARK</text>
  <line x1="148" y1="150" x2="136" y2="150" stroke="#0d3055" stroke-width="1.5"/>
  <line x1="148" y1="162" x2="136" y2="162" stroke="#0d3055" stroke-width="1.5"/>
  <line x1="226" y1="150" x2="240" y2="150" stroke="#0d3055" stroke-width="1.5"/>
  <line x1="226" y1="162" x2="240" y2="162" stroke="#0d3055" stroke-width="1.5"/>

  <!-- Central CPU: MLOps -->
  <rect x="344" y="44" width="140" height="102" rx="7" fill="#020810" stroke="#00bfff" stroke-width="1.8"/>
  <rect x="350" y="50"  width="128" height="90" rx="4" fill="none" stroke="#00bfff" stroke-width="0.35" opacity="0.25"/>
  <text x="414" y="90"  text-anchor="middle" fill="#00bfff" font-size="14" font-weight="bold" font-family="monospace">MLOps</text>
  <text x="414" y="108" text-anchor="middle" fill="#1a4f72" font-size="7" font-family="monospace" letter-spacing="2">CI/CD · AZURE · PIPELINES</text>
  <!-- legs top -->
  <line x1="362" y1="44" x2="362" y2="30" stroke="#0d3055" stroke-width="2"/>
  <line x1="380" y1="44" x2="380" y2="30" stroke="#0d3055" stroke-width="2"/>
  <line x1="398" y1="44" x2="398" y2="30" stroke="#0d3055" stroke-width="2"/>
  <line x1="416" y1="44" x2="416" y2="30" stroke="#0d3055" stroke-width="2"/>
  <line x1="434" y1="44" x2="434" y2="30" stroke="#0d3055" stroke-width="2"/>
  <line x1="452" y1="44" x2="452" y2="30" stroke="#0d3055" stroke-width="2"/>
  <!-- legs bottom -->
  <line x1="362" y1="146" x2="362" y2="165" stroke="#0d3055" stroke-width="2"/>
  <line x1="380" y1="146" x2="380" y2="165" stroke="#0d3055" stroke-width="2"/>
  <line x1="398" y1="146" x2="398" y2="165" stroke="#0d3055" stroke-width="2"/>
  <line x1="416" y1="146" x2="416" y2="165" stroke="#0d3055" stroke-width="2"/>
  <line x1="452" y1="146" x2="452" y2="165" stroke="#0d3055" stroke-width="2"/>
  <!-- legs left -->
  <line x1="344" y1="62"  x2="324" y2="62"  stroke="#0d3055" stroke-width="2"/>
  <line x1="344" y1="78"  x2="324" y2="78"  stroke="#0d3055" stroke-width="2"/>
  <line x1="344" y1="95"  x2="324" y2="95"  stroke="#0d3055" stroke-width="2"/>
  <line x1="344" y1="112" x2="324" y2="112" stroke="#0d3055" stroke-width="2"/>
  <line x1="344" y1="128" x2="324" y2="128" stroke="#0d3055" stroke-width="2"/>
  <!-- legs right -->
  <line x1="484" y1="62"  x2="504" y2="62"  stroke="#0d3055" stroke-width="2"/>
  <line x1="484" y1="78"  x2="504" y2="78"  stroke="#0d3055" stroke-width="2"/>
  <line x1="484" y1="95"  x2="504" y2="95"  stroke="#0d3055" stroke-width="2"/>
  <line x1="484" y1="112" x2="504" y2="112" stroke="#0d3055" stroke-width="2"/>
  <line x1="484" y1="128" x2="504" y2="128" stroke="#0d3055" stroke-width="2"/>

  <!-- Chip: FastAPI -->
  <rect x="554" y="18" width="78" height="46" rx="3" fill="#030a14" stroke="#0d3055" stroke-width="1"/>
  <text x="593" y="45" text-anchor="middle" fill="#00bfff" font-size="9" font-family="monospace">FASTAPI</text>
  <line x1="554" y1="28" x2="542" y2="28" stroke="#0d3055" stroke-width="1.5"/>
  <line x1="554" y1="40" x2="542" y2="40" stroke="#0d3055" stroke-width="1.5"/>
  <line x1="554" y1="52" x2="542" y2="52" stroke="#0d3055" stroke-width="1.5"/>
  <line x1="632" y1="28" x2="644" y2="28" stroke="#0d3055" stroke-width="1.5"/>
  <line x1="632" y1="40" x2="644" y2="40" stroke="#0d3055" stroke-width="1.5"/>
  <line x1="632" y1="52" x2="644" y2="52" stroke="#0d3055" stroke-width="1.5"/>

  <!-- Chip: Azure -->
  <rect x="700" y="18" width="70" height="46" rx="3" fill="#030a14" stroke="#0d3055" stroke-width="1"/>
  <text x="735" y="45" text-anchor="middle" fill="#00bfff" font-size="9" font-family="monospace">AZURE</text>
  <line x1="700" y1="28" x2="688" y2="28" stroke="#0d3055" stroke-width="1.5"/>
  <line x1="700" y1="40" x2="688" y2="40" stroke="#0d3055" stroke-width="1.5"/>
  <line x1="700" y1="52" x2="688" y2="52" stroke="#0d3055" stroke-width="1.5"/>
  <line x1="770" y1="28" x2="782" y2="28" stroke="#0d3055" stroke-width="1.5"/>
  <line x1="770" y1="40" x2="782" y2="40" stroke="#0d3055" stroke-width="1.5"/>

  <!-- Chip: Docker -->
  <rect x="700" y="90" width="70" height="46" rx="3" fill="#030a14" stroke="#0d3055" stroke-width="1"/>
  <text x="735" y="117" text-anchor="middle" fill="#4da6ff" font-size="9" font-family="monospace">DOCKER</text>
  <line x1="700" y1="100" x2="688" y2="100" stroke="#0d3055" stroke-width="1.5"/>
  <line x1="700" y1="112" x2="688" y2="112" stroke="#0d3055" stroke-width="1.5"/>
  <line x1="700" y1="124" x2="688" y2="124" stroke="#0d3055" stroke-width="1.5"/>
  <line x1="770" y1="100" x2="782" y2="100" stroke="#0d3055" stroke-width="1.5"/>
  <line x1="770" y1="112" x2="782" y2="112" stroke="#0d3055" stroke-width="1.5"/>

  <!-- Chip: LightGBM -->
  <rect x="554" y="145" width="90" height="42" rx="3" fill="#030a14" stroke="#0d3055" stroke-width="1"/>
  <text x="599" y="170" text-anchor="middle" fill="#7dd8f8" font-size="9" font-family="monospace">LIGHTGBM</text>
  <line x1="554" y1="155" x2="542" y2="155" stroke="#0d3055" stroke-width="1.5"/>
  <line x1="554" y1="167" x2="542" y2="167" stroke="#0d3055" stroke-width="1.5"/>
  <line x1="644" y1="155" x2="656" y2="155" stroke="#0d3055" stroke-width="1.5"/>
  <line x1="644" y1="167" x2="656" y2="167" stroke="#0d3055" stroke-width="1.5"/>

  <!-- junction dots -->
  <circle cx="100"  cy="50"  r="2.5" fill="#00bfff" opacity="0.5"/>
  <circle cx="324"  cy="95"  r="2.5" fill="#00bfff" opacity="0.6"/>
  <circle cx="504"  cy="95"  r="2.5" fill="#00bfff" opacity="0.6"/>
  <circle cx="542"  cy="40"  r="2.5" fill="#4da6ff" opacity="0.5"/>
  <circle cx="688"  cy="40"  r="2.5" fill="#4da6ff" opacity="0.45"/>
  <circle cx="688"  cy="112" r="2.5" fill="#4da6ff" opacity="0.4"/>

  <!-- ANIMATED SIGNALS -->
  <!-- SQL → MLOps -->
  <circle r="4" fill="#00bfff">
    <animateMotion dur="2.6s" repeatCount="indefinite"
      path="M74,46 L100,46 L100,95 L324,95"/>
    <animate attributeName="opacity" values="0;1;1;0" dur="2.6s" repeatCount="indefinite"/>
  </circle>

  <!-- Python → MLOps -->
  <circle r="3.5" fill="#4da6ff">
    <animateMotion dur="2.2s" repeatCount="indefinite" begin="0.6s"
      path="M226,95 L324,95"/>
    <animate attributeName="opacity" values="0;1;1;0" dur="2.2s" repeatCount="indefinite" begin="0.6s"/>
  </circle>

  <!-- PySpark → MLOps -->
  <circle r="3" fill="#7dd8f8">
    <animateMotion dur="3s" repeatCount="indefinite" begin="1.1s"
      path="M226,155 L270,155 L270,128 L324,128"/>
    <animate attributeName="opacity" values="0;1;1;0" dur="3s" repeatCount="indefinite" begin="1.1s"/>
  </circle>

  <!-- FastAPI → MLOps -->
  <circle r="3.5" fill="#00bfff">
    <animateMotion dur="2s" repeatCount="indefinite" begin="0.3s"
      path="M542,40 L504,40 L504,78"/>
    <animate attributeName="opacity" values="0;1;1;0" dur="2s" repeatCount="indefinite" begin="0.3s"/>
  </circle>

  <!-- MLOps → Azure -->
  <circle r="3" fill="#00bfff">
    <animateMotion dur="2.8s" repeatCount="indefinite" begin="1.4s"
      path="M504,62 L680,62 L680,40 L700,40"/>
    <animate attributeName="opacity" values="0;1;1;0" dur="2.8s" repeatCount="indefinite" begin="1.4s"/>
  </circle>

  <!-- MLOps → Docker -->
  <circle r="3" fill="#4da6ff">
    <animateMotion dur="3.2s" repeatCount="indefinite" begin="0.8s"
      path="M504,112 L688,112 L700,112"/>
    <animate attributeName="opacity" values="0;1;1;0" dur="3.2s" repeatCount="indefinite" begin="0.8s"/>
  </circle>

  <!-- LightGBM → MLOps -->
  <circle r="2.5" fill="#7dd8f8">
    <animateMotion dur="3.5s" repeatCount="indefinite" begin="2s"
      path="M542,160 L504,160 L504,128"/>
    <animate attributeName="opacity" values="0;0.8;0" dur="3.5s" repeatCount="indefinite" begin="2s"/>
  </circle>

  <!-- upward pulse -->
  <circle r="2.5" fill="#00bfff" opacity="0.6">
    <animateMotion dur="1.8s" repeatCount="indefinite" begin="0.5s"
      path="M414,44 L414,16"/>
    <animate attributeName="opacity" values="0;0.7;0" dur="1.8s" repeatCount="indefinite" begin="0.5s"/>
  </circle>

  <!-- banner label -->
  <text x="430" y="192" text-anchor="middle" fill="#0a2545"
    font-size="8.5" font-family="monospace" letter-spacing="4">NYANDAJR  ·  ML ENGINEER  ·  DAR ES SALAAM, TZ</text>
</svg>
